# xmcd CD database file
#
# Track frame offsets:
#	150
#	39712
#	73673
#	88798
#	111055
#	139736
#	174899
#	222486
#
# Disc length: 3590 seconds
#
# Revision: 0
# Processed by: cddbd v1.5.2PL0 Copyright (c) Steve Scherf et al.
# Submitted via: CDex 1.51
#
DISCID=710e0408
DTITLE=Honsinger - Rupp - stretto
DYEAR=2010
DGENRE=Jazz
TTITLE0=can
TTITLE1=you
TTITLE2=imagine
TTITLE3=a conversation
TTITLE4=between 
TTITLE5=a table
TTITLE6=and a
TTITLE7=chair?
EXTD=YEAR: 2010
EXTT0=
EXTT1=
EXTT2=
EXTT3=
EXTT4=
EXTT5=
EXTT6=
EXTT7=
PLAYORDER=
